<svg width="16" height="16" viewBox="0 0 16 16" fill="none" xmlns="http://www.w3.org/2000/svg">
<path d="M8.00065 7.99967H7.25065C7.25065 8.3225 7.45722 8.6091 7.76348 8.71119L8.00065 7.99967ZM8.75065 4.66634C8.75065 4.25213 8.41486 3.91634 8.00065 3.91634C7.58644 3.91634 7.25065 4.25213 7.25065 4.66634H8.00065H8.75065ZM9.76348 9.37785C10.1564 9.50884 10.5812 9.29647 10.7122 8.90351C10.8431 8.51055 10.6308 8.08581 10.2378 7.95483L10.0007 8.66634L9.76348 9.37785ZM8.00065 7.99967H8.75065V4.66634H8.00065H7.25065V7.99967H8.00065ZM8.00065 7.99967L7.76348 8.71119L9.76348 9.37785L10.0007 8.66634L10.2378 7.95483L8.23782 7.28816L8.00065 7.99967ZM14.6673 7.99967H13.9173C13.9173 11.2674 11.2683 13.9163 8.00065 13.9163V14.6663V15.4163C12.0968 15.4163 15.4173 12.0958 15.4173 7.99967H14.6673ZM8.00065 14.6663V13.9163C4.73297 13.9163 2.08398 11.2674 2.08398 7.99967H1.33398H0.583984C0.583984 12.0958 3.90454 15.4163 8.00065 15.4163V14.6663ZM1.33398 7.99967H2.08398C2.08398 4.73199 4.73297 2.08301 8.00065 2.08301V1.33301V0.583008C3.90454 0.583008 0.583984 3.90356 0.583984 7.99967H1.33398ZM8.00065 1.33301V2.08301C11.2683 2.08301 13.9173 4.73199 13.9173 7.99967H14.6673H15.4173C15.4173 3.90356 12.0968 0.583008 8.00065 0.583008V1.33301Z" fill="#FFA18D"/>
</svg>
